<svg width="920" height="220" viewBox="0 0 920 220" fill="none" xmlns="http://www.w3.org/2000/svg">
  <defs>
    <linearGradient id="cShield" x1="24" y1="16" x2="190" y2="184" gradientUnits="userSpaceOnUse">
      <stop offset="0" stop-color="#5EA4F2"/>
      <stop offset="0.52" stop-color="#2B65C7"/>
      <stop offset="1" stop-color="#16357A"/>
    </linearGradient>
  </defs>
  <path d="M109 18C140 33 170 40 205 44V107C205 151 177 190 109 212C41 190 13 151 13 107V44C48 40 78 33 109 18Z" fill="url(#cShield)"/>
  <path d="M60 75L109 56L158 75L109 93L60 75Z" fill="white"/>
  <path d="M77 86H141V93C130 100 120 103 109 103C98 103 88 100 77 93V86Z" fill="white"/>
  <path d="M22 136C60 118 105 115 150 125" stroke="#1CA4F3" stroke-width="10" stroke-linecap="round"/>
  <path d="M14 160C56 176 102 178 148 171C172 168 194 160 214 148" stroke="#48B143" stroke-width="12" stroke-linecap="round"/>
  <text x="252" y="92" font-family="Segoe UI, Arial, sans-serif" font-size="90" font-weight="800" letter-spacing="-2" fill="#1E347A">Alumni</text>
  <text x="252" y="172" font-family="Segoe UI, Arial, sans-serif" font-size="90" font-weight="800" letter-spacing="-2" fill="#44AF41">Connect</text>
  <rect x="252" y="182" width="338" height="6" rx="3" fill="#E2E8F0"/>
</svg>
