<svg width="920" height="220" viewBox="0 0 920 220" fill="none" xmlns="http://www.w3.org/2000/svg">
  <defs>
    <linearGradient id="bShield" x1="25" y1="18" x2="185" y2="178" gradientUnits="userSpaceOnUse">
      <stop offset="0" stop-color="#58A0F1"/>
      <stop offset="0.6" stop-color="#245FBE"/>
      <stop offset="1" stop-color="#13306D"/>
    </linearGradient>
    <linearGradient id="bSweep" x1="15" y1="151" x2="208" y2="172" gradientUnits="userSpaceOnUse">
      <stop offset="0" stop-color="#65C13C"/>
      <stop offset="0.5" stop-color="#18B7BB"/>
      <stop offset="1" stop-color="#0B6A73"/>
    </linearGradient>
  </defs>
  <path d="M108 18C137 31 165 39 198 44V105C198 148 171 187 108 209C45 187 18 148 18 105V44C51 39 79 31 108 18Z" fill="url(#bShield)"/>
  <path d="M54 78L108 56L162 78L108 98L54 78Z" fill="white"/>
  <path d="M72 90H144V98C132 106 120 110 108 110C96 110 84 106 72 98V90Z" fill="white"/>
  <path d="M22 151C69 124 125 121 180 141" stroke="#1E9DF0" stroke-width="12" stroke-linecap="round"/>
  <path d="M12 172C63 192 115 194 166 185C187 181 206 173 222 163" stroke="url(#bSweep)" stroke-width="14" stroke-linecap="round"/>
  <text x="255" y="94" font-family="Inter, Segoe UI, Arial, sans-serif" font-size="84" font-weight="800" letter-spacing="-2" fill="#1B3175">Alumni</text>
  <text x="255" y="170" font-family="Inter, Segoe UI, Arial, sans-serif" font-size="84" font-weight="700" letter-spacing="-2" fill="#43AF40">Connect</text>
</svg>
